<?xml version="1.0" encoding="UTF-8" standalone="no"?>
<!-- Created with Inkscape (http://www.inkscape.org/) -->

<svg
   xmlns:dc="http://purl.org/dc/elements/1.1/"
   xmlns:cc="http://creativecommons.org/ns#"
   xmlns:rdf="http://www.w3.org/1999/02/22-rdf-syntax-ns#"
   xmlns:svg="http://www.w3.org/2000/svg"
   xmlns="http://www.w3.org/2000/svg"
   xmlns:sodipodi="http://sodipodi.sourceforge.net/DTD/sodipodi-0.dtd"
   xmlns:inkscape="http://www.inkscape.org/namespaces/inkscape"
   width="64.000076"
   height="64.086807"
   id="svg2"
   version="1.1"
   inkscape:version="0.48.4 r9939"
   sodipodi:docname="pokeball.svg">
  <defs
     id="defs4" />
  <sodipodi:namedview
     id="base"
     pagecolor="#ffffff"
     bordercolor="#666666"
     borderopacity="1.0"
     inkscape:pageopacity="0.0"
     inkscape:pageshadow="2"
     inkscape:zoom="1.1664637"
     inkscape:cx="51.195628"
     inkscape:cy="31.25539"
     inkscape:document-units="px"
     inkscape:current-layer="layer1"
     showgrid="false"
     inkscape:window-width="1366"
     inkscape:window-height="716"
     inkscape:window-x="1920"
     inkscape:window-y="0"
     inkscape:window-maximized="1"
     fit-margin-top="0"
     fit-margin-left="0"
     fit-margin-right="0"
     fit-margin-bottom="0" />
  <metadata
     id="metadata7">
    <rdf:RDF>
      <cc:Work
         rdf:about="">
        <dc:format>image/svg+xml</dc:format>
        <dc:type
           rdf:resource="http://purl.org/dc/dcmitype/StillImage" />
        <dc:title />
      </cc:Work>
    </rdf:RDF>
  </metadata>
  <g
     inkscape:label="Layer 1"
     inkscape:groupmode="layer"
     id="layer1"
     transform="translate(-198.61162,-430.40628)">
    <g
       id="g3803"
       transform="matrix(0.7928765,0,0,0.79303187,41.137142,102.33533)"
       inkscape:export-filename="/home/renan/Dropbox/tutorials/Pokemon1/source/assets/images/pokeball.png"
       inkscape:export-xdpi="90"
       inkscape:export-ydpi="90">
      <path
         id="path2994"
         d="m 265.71875,450.4375 0,-1.25 c -0.003,0.21272 -0.0625,0.41148 -0.0625,0.625 0,0.21434 0.0591,0.41146 0.0625,0.625 z"
         style="fill:#ff2a2a;fill-opacity:1;stroke:none"
         inkscape:connector-curvature="0" />
      <g
         style="stroke:#000000"
         transform="translate(-66.607143,4.2857143)"
         id="g2996">
        <path
           inkscape:connector-curvature="0"
           style="fill:#ffffff;fill-opacity:1;stroke:#000000"
           d="m 345.28125,447.9375 -79.46875,0.375 c -0.0112,0.2964 -0.0891,0.57698 -0.0937,0.875 l 0,1.25 c 0.34285,21.74073 18.02136,39.28125 39.84375,39.28125 21.92956,0 39.70241,-17.7049 39.875,-39.59375 l 0,-0.625 c -0.004,-0.53281 -0.13137,-1.03486 -0.15625,-1.5625 z"
           id="path2990" />
        <path
           inkscape:connector-curvature="0"
           style="fill:#ff2a2a;fill-opacity:1;stroke:#000000"
           d="m 305.5625,409.90625 c -21.52407,0 -38.9454,17.07903 -39.75,38.40625 l 79.46875,-0.375 c -0.99712,-21.14943 -18.32258,-38.03125 -39.71875,-38.03125 z"
           id="path2985" />
      </g>
      <path
         transform="translate(2.8571429,-1.4285714)"
         d="m 242.67857,453.96933 c 0,3.74765 -3.03807,6.78571 -6.78572,6.78571 -3.74764,0 -6.78571,-3.03806 -6.78571,-6.78571 0,-3.74765 3.03807,-6.78571 6.78571,-6.78571 3.74765,0 6.78572,3.03806 6.78572,6.78571 z"
         sodipodi:ry="6.7857141"
         sodipodi:rx="6.7857141"
         sodipodi:cy="453.96933"
         sodipodi:cx="235.89285"
         id="path3000"
         style="fill:#ffffff;fill-opacity:1;stroke:#000000;stroke-width:2;stroke-miterlimit:4;stroke-opacity:1;stroke-dasharray:none;stroke-dashoffset:0"
         sodipodi:type="arc" />
    </g>
  </g>
</svg>
